<?xml version="1.0" encoding="utf-8"?>
<!-- Generator: Adobe Illustrator 22.1.0, SVG Export Plug-In . SVG Version: 6.00 Build 0)  -->
<svg version="1.1" id="Layer_1" xmlns="http://www.w3.org/2000/svg" xmlns:xlink="http://www.w3.org/1999/xlink" x="0px" y="0px"
	 viewBox="0 0 1014.7 562.9" style="enable-background:new 0 0 1014.7 562.9;" xml:space="preserve">
<style type="text/css">
	.st0{fill:none;stroke:#000000;stroke-width:8;stroke-miterlimit:10;}
	.st1{fill:none;stroke:#000000;stroke-width:5;stroke-miterlimit:10;}
	.st2{font-family:'Quicksand-Regular';}
	.st3{font-size:83px;}
	.st4{font-family:'Quicksand-Bold';}
	.st5{fill:none;stroke:#000000;stroke-width:5;}
	.st6{fill:#64E3FF;stroke:#000000;stroke-width:6;}
	.st7{fill:#FF7088;stroke:#000000;stroke-width:6;}
	.st8{fill:#F5CA42;stroke:#000000;stroke-width:6;}
	.st9{fill:#86FF79;stroke:#000000;stroke-width:6;}
	.st10{fill:none;stroke:#FFFFFF;stroke-width:8;stroke-miterlimit:10;}
	.st11{fill:none;stroke:#FFFFFF;stroke-width:5;stroke-miterlimit:10;}
	.st12{fill:#FFFFFF;}
	.st13{fill:none;stroke:#FFFFFF;stroke-width:5;}
	.st14{fill:#64E3FF;stroke:#FFFFFF;stroke-width:6;}
	.st15{fill:#FF7088;stroke:#FFFFFF;stroke-width:6;}
	.st16{fill:#F5CA42;stroke:#FFFFFF;stroke-width:6;}
	.st17{fill:#86FF79;stroke:#FFFFFF;stroke-width:6;}
</style>
<g id="background">
	<rect width="507.5" height="562.9"/>
</g>
<g id="Layer_1_1_">
	<polyline class="st0" points="774.2,66.7 774.2,353.9 723.2,353.9 655,393.2 	"/>
	<path class="st1" d="M781.6,29.5c2.7,5.2,3.6,12.5,2.8,19.1c-0.4,3.4-3.4,6.7-4.8,9.3c-4.1,7.9-6.7,7.9-10.8,0
		c-1.3-2.4-4.1-5.3-4.6-8.3c-1.1-6.9-0.2-14.7,2.6-20.1C770.9,21.7,777.5,21.7,781.6,29.5z"/>
	<text transform="matrix(1 0 0 1 597.4182 536.7)" class="st2 st3">SIPH</text>
	<text transform="matrix(1 0 0 1 778.5001 536.7)" class="st4 st3">WEB</text>
	<path class="st5" d="M775.3,118.9v8.9v9.8l0,0v8.5c0,6,6.9,10.8,15.4,10.8h16.7c8.5,0,15.4-4.9,15.4-10.8V119
		c0-6-6.9-10.8-15.4-10.8"/>
	<path class="st5" d="M774.3,119.4v8.9v9.8l0,0v8.5c0,6-6.9,10.8-15.4,10.8h-16.7c-8.5,0-15.4-4.9-15.4-10.8v-27.2
		c0-6,6.9-10.8,15.4-10.8h16.7"/>
	<path class="st5" d="M758.8,59.8c8.5,0,15.4,4.9,15.4,10.8v8.9l0.2,4.7l-0.2,5.1v8.5c0,6-6.9,10.8-15.4,10.8h-16.7
		c-8.5,0-15.4-4.9-15.4-10.8V70.7c0-6,6.9-10.8,15.4-10.8L758.8,59.8L758.8,59.8z"/>
	<path class="st5" d="M775.1,167.5v8.9v9.8l0,0v8.5c0,6,6.9,10.8,15.4,10.8h16.7c8.5,0,15.4-4.9,15.4-10.8v-27.2
		c0-6-6.9-10.8-15.4-10.8h-16.7"/>
	<path class="st5" d="M774.2,168v8.9v9.8l0,0v8.5c0,6-6.9,10.8-15.4,10.8h-16.7c-8.5,0-15.4-4.9-15.4-10.8V168
		c0-6,6.9-10.8,15.4-10.8h16.7"/>
	<polyline class="st0" points="774.2,294 727.7,294 644.5,241.6 	"/>
	<polyline class="st0" points="774.2,256.5 840.4,256.5 900.8,204.7 	"/>
	<polyline class="st0" points="774.2,325.9 819.5,325.9 902.3,375.1 	"/>
	<ellipse class="st6" cx="644.5" cy="241.6" rx="53.3" ry="53.3"/>
	<ellipse class="st7" cx="900.8" cy="375.1" rx="50" ry="50"/>
	<ellipse class="st8" cx="655" cy="393.2" rx="23.7" ry="23.7"/>
	<path class="st5" d="M790.6,59.3c-8.5,0-15.4,4.9-15.4,10.8V79v5.2v4.6v8.5c0,6,6.9,10.8,15.4,10.8h16.7c8.5,0,15.4-4.9,15.4-10.8
		V70.2c0-6-6.9-10.8-15.4-10.8L790.6,59.3L790.6,59.3z"/>
	<path class="st5" d="M726.7,84.8h2.8c10.8,0,19.5,8.7,19.5,19.5v4.3"/>
	<path class="st5" d="M726.7,134.7h2.8c10.8,0,19.5,8.7,19.5,19.5v3.2"/>
	<path class="st5" d="M726.7,183.2h2.8c10.8,0,19.5,8.7,19.5,19.5v3.3"/>
	<path class="st5" d="M822.7,84.8h-3.4c-10.8,0-19.5,8.7-19.5,19.5v3.8"/>
	<path class="st5" d="M822.8,134.7h-3.5c-10.8,0-19.5,8.7-19.5,19.5v2.7"/>
	<path class="st5" d="M822.6,183.2h-3.3c-10.8,0-19.5,8.7-19.5,19.5v2.8"/>
	
		<ellipse transform="matrix(0.7071 -0.7071 0.7071 0.7071 118.5222 697.1474)" class="st9" cx="900.8" cy="205.5" rx="37.4" ry="37.4"/>
	<polyline class="st10" points="256,66.7 256,353.9 205,353.9 136.8,393.2 	"/>
	<path class="st11" d="M263.4,29.5c2.7,5.2,3.6,12.5,2.8,19.1c-0.4,3.4-3.4,6.7-4.8,9.3c-4.1,7.9-6.7,7.9-10.8,0
		c-1.3-2.4-4.1-5.3-4.6-8.3c-1.1-6.9-0.2-14.7,2.6-20.1C252.7,21.7,259.3,21.7,263.4,29.5z"/>
	<text transform="matrix(1 0 0 1 79.2523 536.7)" class="st12 st2 st3">SIPH</text>
	<text transform="matrix(1 0 0 1 260.3342 536.7)" class="st12 st4 st3">WEB</text>
	<path class="st13" d="M257.1,118.9v8.9v9.8l0,0v8.5c0,6,6.9,10.8,15.4,10.8h16.7c8.5,0,15.4-4.9,15.4-10.8V119
		c0-6-6.9-10.8-15.4-10.8"/>
	<path class="st13" d="M256.1,119.4v8.9v9.8l0,0v8.5c0,6-6.9,10.8-15.4,10.8H224c-8.5,0-15.4-4.9-15.4-10.8v-27.2
		c0-6,6.9-10.8,15.4-10.8h16.7"/>
	<path class="st13" d="M240.6,59.8c8.5,0,15.4,4.9,15.4,10.8v8.9l0.2,4.7l-0.2,5.1v8.5c0,6-6.9,10.8-15.4,10.8h-16.7
		c-8.5,0-15.4-4.9-15.4-10.8V70.7c0-6,6.9-10.8,15.4-10.8L240.6,59.8L240.6,59.8z"/>
	<path class="st13" d="M256.9,167.5v8.9v9.8l0,0v8.5c0,6,6.9,10.8,15.4,10.8H289c8.5,0,15.4-4.9,15.4-10.8v-27.2
		c0-6-6.9-10.8-15.4-10.8h-16.7"/>
	<path class="st13" d="M256,168v8.9v9.8l0,0v8.5c0,6-6.9,10.8-15.4,10.8h-16.7c-8.5,0-15.4-4.9-15.4-10.8V168
		c0-6,6.9-10.8,15.4-10.8h16.7"/>
	<polyline class="st10" points="256,294 209.5,294 126.3,241.6 	"/>
	<polyline class="st10" points="256,256.5 322.2,256.5 382.6,204.7 	"/>
	<polyline class="st10" points="256,325.9 301.3,325.9 384.1,375.1 	"/>
	
		<ellipse transform="matrix(0.7071 -0.7071 0.7071 0.7071 -133.8254 160.0845)" class="st14" cx="126.3" cy="241.6" rx="53.3" ry="53.3"/>
	<ellipse class="st15" cx="382.6" cy="375.1" rx="50" ry="50"/>
	<ellipse class="st16" cx="136.8" cy="393.2" rx="23.7" ry="23.7"/>
	<path class="st13" d="M272.4,59.3c-8.5,0-15.4,4.9-15.4,10.8V79v5.2v4.6v8.5c0,6,6.9,10.8,15.4,10.8h16.7c8.5,0,15.4-4.9,15.4-10.8
		V70.2c0-6-6.9-10.8-15.4-10.8L272.4,59.3L272.4,59.3z"/>
	<path class="st13" d="M208.5,84.8h2.8c10.8,0,19.5,8.7,19.5,19.5v4.3"/>
	<path class="st13" d="M208.5,134.7h2.8c10.8,0,19.5,8.7,19.5,19.5v3.2"/>
	<path class="st13" d="M208.5,183.2h2.8c10.8,0,19.5,8.7,19.5,19.5v3.3"/>
	<path class="st13" d="M304.5,84.8h-3.4c-10.8,0-19.5,8.7-19.5,19.5v3.8"/>
	<path class="st13" d="M304.6,134.7h-3.5c-10.8,0-19.5,8.7-19.5,19.5v2.7"/>
	<path class="st13" d="M304.4,183.2h-3.3c-10.8,0-19.5,8.7-19.5,19.5v2.8"/>
	<ellipse class="st17" cx="382.6" cy="205.5" rx="37.4" ry="37.4"/>
</g>
</svg>
