<?xml version="1.0" encoding="utf-8"?>
<!-- Generator: Adobe Illustrator 19.2.1, SVG Export Plug-In . SVG Version: 6.00 Build 0)  -->
<svg version="1.1" id="Layer_1" xmlns="http://www.w3.org/2000/svg" xmlns:xlink="http://www.w3.org/1999/xlink" x="0px" y="0px"
	 viewBox="0 0 1014.7 562.9" style="enable-background:new 0 0 1014.7 562.9;" xml:space="preserve">
<style type="text/css">
	.st0{fill:#FFFFFF;}
	.st1{fill:none;stroke:#FFFFFF;stroke-width:5;}
	.st2{fill:none;stroke:#FFFFFF;stroke-width:4;}
	.st3{font-family:'EuphemiaUCAS';}
	.st4{font-size:83px;}
	.st5{font-family:'EuphemiaUCAS-Bold';}
	.st6{fill:none;stroke:#000000;stroke-width:5;stroke-miterlimit:10;}
	.st7{fill:#FFFFFF;stroke:#000000;}
	.st8{fill:none;stroke:#000000;stroke-width:5;}
	.st9{fill:#FFFFFF;stroke:#000000;stroke-width:4;}
	.st10{fill:none;stroke:#000000;stroke-width:4;}
	.st11{fill:none;stroke:#000000;stroke-width:4;stroke-miterlimit:10;}
	.st12{fill:none;stroke:#FFFFFF;stroke-width:6;stroke-miterlimit:10;}
	.st13{fill:#A5FFAC;stroke:#FFFFFF;stroke-width:4;}
	.st14{fill:#8AE3FF;stroke:#FFFFFF;stroke-width:4;}
	.st15{fill:#F5FF92;stroke:#FFFFFF;stroke-width:4;}
	.st16{fill:#FF7F88;stroke:#FFFFFF;stroke-width:4;}
	.st17{fill:none;stroke:#000000;stroke-width:6;stroke-miterlimit:10;}
	.st18{fill:#64E3FF;stroke:#000000;stroke-width:4;}
	.st19{fill:#86FF79;stroke:#000000;stroke-width:4;}
	.st20{fill:#FF7088;stroke:#000000;stroke-width:4;}
	.st21{fill:#F5CA42;stroke:#000000;stroke-width:4;}
</style>
<rect width="507.5" height="562.9"/>
<rect x="261.4" y="67.7" class="st0" width="9.2" height="288.9"/>
<path d="M274.3,35.8c4.1,7.9,4.1,20.6,0,28.4c-4.1,7.9-10.7,7.9-14.8,0c-4.1-7.9-4.1-20.6,0-28.4C263.5,27.9,270.2,27.9,274.3,35.8z
	"/>
<path class="st1" d="M274.3,35.8c4.1,7.9,4.1,20.6,0,28.4c-4.1,7.9-10.7,7.9-14.8,0c-4.1-7.9-4.1-20.6,0-28.4
	C263.5,27.9,270.2,27.9,274.3,35.8z"/>
<text transform="matrix(1 0 0 1 77.5102 528.6793)"><tspan x="0" y="0" class="st0 st3 st4">SIPH</tspan><tspan x="172.2" y="0" class="st0 st5 st4">WEB</tspan></text>
<path class="st1" d="M286.9,61.7c-8.5,0-15.4,5.1-15.4,11.3v9.3l0,4.9l0,5.3v8.9c0,6.3,6.9,11.3,15.4,11.3h22.7
	c8.5,0,15.4-5.1,15.4-11.3V73c0-6.3-6.9-11.3-15.4-11.3H286.9z"/>
<path class="st1" d="M287,112.3c-8.5,0-15.4,5-15.4,11.1v9.1l-0.1,4.8l0.1,5.3v8.7c0,6.1,6.9,11.1,15.4,11.1h22.7
	c8.5,0,15.4-5,15.4-11.1v-27.9c0-6.1-6.9-11.1-15.4-11.1H287z"/>
<path class="st1" d="M245.1,62.2c8.5,0,15.4,5,15.4,11.1v9.1v4.8v5.3v8.7c0,6.1-6.9,11.1-15.4,11.1h-22.7c-8.5,0-15.4-5-15.4-11.1
	V73.3c0-6.1,6.9-11.1,15.4-11.1H245.1z"/>
<path class="st1" d="M245.2,112.8c8.5,0,15.4,5,15.4,11.1v9.1l0.2,4.8l-0.2,5.3v8.7c0,6.1-6.9,11.1-15.4,11.1h-22.7
	c-8.5,0-15.4-5-15.4-11.1v-27.9c0-6.1,6.9-11.1,15.4-11.1H245.2z"/>
<path class="st2" d="M304.6,101.8c-2.3,0-4.3,1-5.3,2.3l0,0l-0.7,2.9c0.5,2.1,2.9,3.7,6,3.7h10.8c3.4,0,6.2-2,6.2-4.5
	c0-2.5-2.8-4.5-6.2-4.5H304.6z"/>
<path class="st2" d="M306.4,151.2c-2.5,0-4.5,1-5.8,2.4l0,0l-1.2,2.9c0.2,2.7,3.2,4.8,6.9,4.8h9.2c3.9,0,7-2.3,7-5.1
	c0-2.8-3.1-5.1-7-5.1H306.4z"/>
<path d="M226.4,116.4c2.3,0,4.3,1.3,5.3,3.2l2.1,1.7l-1.4,2.3c-0.5,2.9-3,5.1-6,5.1h-10.8c-3.4,0-6.2-2.8-6.2-6.2
	c0-3.4,2.8-6.2,6.2-6.2H226.4z"/>
<path class="st2" d="M226.4,101.2c2.3,0,4.3,1,5.3,2.3l0.5,1.2l0.1,1.7c-0.5,2.1-3,3.7-6,3.7h-10.8c-3.4,0-6.2-2-6.2-4.5
	c0-2.5,2.8-4.5,6.2-4.5H226.4z"/>
<path d="M227.4,186.4c2.3,0,4.3,1.3,5.3,3.2l2,1.6l-1.3,2.3c-0.5,3-2.9,5.3-6,5.3h-10.2c-3.4,0-6.2-2.8-6.2-6.2
	c0-3.4,2.8-6.2,6.2-6.2H227.4z"/>
<path class="st2" d="M227.4,151.8c2.3,0,4.3,1,5.3,2.3l0.7,2.8l0,0c-0.5,2.2-2.9,3.8-6,3.8h-10.2c-3.4,0-6.2-2-6.2-4.5
	c0-2.5,2.8-4.5,6.2-4.5H227.4z"/>
<path d="M824.5,69c10.8,9.5,10.8,25,0,34.6c-10.8,9.5-28.3,9.5-39.1,0c-10.8-9.5-10.8-25,0-34.6C796.3,59.5,813.8,59.5,824.5,69z"/>
<path class="st1" d="M824.5,69c10.8,9.5,10.8,25,0,34.6c-10.8,9.5-28.3,9.5-39.1,0c-10.8-9.5-10.8-25,0-34.6
	C796.3,59.5,813.8,59.5,824.5,69z"/>
<rect x="770.2" y="67.9" width="9.2" height="289.7"/>
<path class="st6" d="M783,35.9c4.1,7.9,4.1,20.6,0,28.4c-4.1,7.9-10.7,7.9-14.8,0c-4.1-7.9-4.1-20.6,0-28.4
	C772.3,28.1,778.9,28.1,783,35.9z"/>
<text transform="matrix(1 0 0 1 587.4178 528.8445)"><tspan x="0" y="0" class="st3 st4">SIPH</tspan><tspan x="172.2" y="0" class="st5 st4">WEB</tspan></text>
<path class="st7" d="M779.2,91.4v8.5c0,6,6.9,10.8,15.4,10.8h22.7c8.5,0,15.4-4.9,15.4-10.8V72.7c0-6-6.9-10.8-15.4-10.8h-22.7
	c-8.5,0-15.4,4.9-15.4,10.8v8.9"/>
<path class="st8" d="M795.6,61.8c-8.5,0-15.4,4.9-15.4,10.8v8.9l0,5.2l0,4.6v8.5c0,6,6.9,10.8,15.4,10.8h22.7
	c8.5,0,15.4-4.9,15.4-10.8V72.7c0-6-6.9-10.8-15.4-10.8H795.6z"/>
<path class="st8" d="M795.7,111.1c-8.5,0-15.4,4.9-15.4,10.8v8.9v9.8l0,0v8.5c0,6,6.9,10.8,15.4,10.8h22.7c8.5,0,15.4-4.9,15.4-10.8
	V122c0-6-6.9-10.8-15.4-10.8H795.7z"/>
<path class="st8" d="M753.9,111.6c8.5,0,15.4,4.9,15.4,10.8v8.9v9.8l0,0v8.5c0,6-6.9,10.8-15.4,10.8h-22.7
	c-8.5,0-15.4-4.9-15.4-10.8v-27.2c0-6,6.9-10.8,15.4-10.8H753.9z"/>
<path class="st9" d="M814.1,100.2c-2.3,0-4.3,0.9-5.3,2.3l-0.7,2.9l0,0c0.5,2,2.9,3.6,6,3.6H825c3.4,0,6.2-2,6.2-4.4
	c0-2.4-2.8-4.4-6.2-4.4H814.1z"/>
<path class="st10" d="M735.1,100.4c2.3,0,4.3,0.9,5.3,2.3l0.5,1.3l0.2,1.6c-0.5,2-3,3.6-6,3.6h-10.8c-3.4,0-6.2-1.9-6.2-4.4
	c0-2.4,2.8-4.4,6.2-4.4H735.1z"/>
<path class="st11" d="M736.1,149.6c2.3,0,4.3,0.9,5.3,2.3l0.7,2.7l0,0c-0.5,2.1-2.9,3.7-6,3.7H726c-3.4,0-6.2-1.9-6.2-4.4
	c0-2.4,2.8-4.4,6.2-4.4H736.1z"/>
<path class="st8" d="M753.8,62.3c8.5,0,15.4,4.9,15.4,10.8v8.9l0.2,4.7l-0.2,5.1v8.5c0,6-6.9,10.8-15.4,10.8h-22.7
	c-8.5,0-15.4-4.9-15.4-10.8V73.2c0-6,6.9-10.8,15.4-10.8H753.8z"/>
<path class="st9" d="M813.3,149.6c-2.3,0-4.3,0.9-5.3,2.3l-0.7,2.9l0,0c0.5,2,2.9,3.6,6,3.6h10.8c3.4,0,6.2-2,6.2-4.4
	c0-2.4-2.8-4.4-6.2-4.4H813.3z"/>
<path class="st1" d="M286.8,162.6c-8.5,0-15.4,5-15.4,11.1v9.1l0,5.3l0,4.8v8.7c0,6.1,6.9,11.1,15.4,11.1h22.7
	c8.5,0,15.4-5,15.4-11.1v-27.9c0-6.1-6.9-11.1-15.4-11.1H286.8z"/>
<path class="st1" d="M245,163.1c8.5,0,15.4,5,15.4,11.1v9.1l0.3,4.8l-0.3,5.3v8.7c0,6.1-6.9,11.1-15.4,11.1h-22.7
	c-8.5,0-15.4-5-15.4-11.1v-27.9c0-6.1,6.9-11.1,15.4-11.1H245z"/>
<path class="st2" d="M306.2,201.5c-2.5,0-4.5,1-5.8,2.4l-1.2,2.9l0,0c0.2,2.7,3.2,4.8,6.9,4.8h9.2c3.9,0,7-2.3,7-5.1
	c0-2.8-3.1-5.1-7-5.1H306.2z"/>
<path class="st2" d="M227.3,202.1c2.3,0,4.3,1,5.3,2.3l0.7,2.8l0,0c-0.5,2.2-2.9,3.8-6,3.8h-10.2c-3.4,0-6.2-2-6.2-4.5
	c0-2.5,2.8-4.5,6.2-4.5H227.3z"/>
<path class="st8" d="M795.5,161.7c-8.5,0-15.4,4.9-15.4,10.8v8.9v9.8l0,0v8.5c0,6,6.9,10.8,15.4,10.8h22.7c8.5,0,15.4-4.9,15.4-10.8
	v-27.2c0-6-6.9-10.8-15.4-10.8H795.5z"/>
<path class="st8" d="M753.8,162.2c8.5,0,15.4,4.9,15.4,10.8v8.9v9.8l0,0v8.5c0,6-6.9,10.8-15.4,10.8h-22.7
	c-8.5,0-15.4-4.9-15.4-10.8v-27.2c0-6,6.9-10.8,15.4-10.8H753.8z"/>
<path class="st11" d="M736,200.2c2.3,0,4.3,0.9,5.3,2.3l0.7,2.7l0,0c-0.5,2.1-2.9,3.7-6,3.7h-10.2c-3.4,0-6.2-1.9-6.2-4.4
	c0-2.4,2.8-4.4,6.2-4.4H736z"/>
<path class="st9" d="M813.2,200.2c-2.3,0-4.3,0.9-5.3,2.3l-0.7,2.9l0,0c0.5,2,2.9,3.6,6,3.6H824c3.4,0,6.2-2,6.2-4.4
	c0-2.4-2.8-4.4-6.2-4.4H813.2z"/>
<polyline class="st12" points="269.1,292.2 195.4,292.2 87.8,236.7 "/>
<polyline class="st12" points="269.1,254.7 361.2,254.7 442.9,191.7 "/>
<polyline class="st12" points="265.9,352.7 204.8,352.1 111.5,406.3 "/>
<polyline class="st12" points="269.1,324.5 310.1,324.1 404.5,371 "/>
<ellipse transform="matrix(0.7071 -0.7071 0.7071 0.7071 -5.8139 369.3648)" class="st13" cx="442.9" cy="191.7" rx="37.7" ry="37.7"/>
<ellipse transform="matrix(0.7071 -0.7071 0.7071 0.7071 -141.7084 131.356)" class="st14" cx="87.7" cy="236.7" rx="60.9" ry="60.9"/>
<circle class="st15" cx="111.5" cy="406.3" r="23.7"/>
<ellipse transform="matrix(0.7071 -0.7071 0.7071 0.7071 -143.8805 394.6561)" class="st16" cx="404.5" cy="371" rx="50" ry="50"/>
<polyline class="st17" points="778.5,294 704.8,294 597.1,238.5 "/>
<polyline class="st17" points="778.5,256.5 870.6,256.5 952.3,186.2 "/>
<polyline class="st17" points="775.3,354.5 714.2,353.9 620.9,408.1 "/>
<polyline class="st17" points="778.5,326.3 819.5,325.9 913.8,372.8 "/>
<ellipse transform="matrix(0.7071 -0.7071 0.7071 0.7071 7.1777 491.1275)" class="st18" cx="596.4" cy="236.9" rx="60.9" ry="60.9"/>
<ellipse transform="matrix(0.7071 -0.7071 0.7071 0.7071 149.4388 726.5027)" class="st19" cx="951.7" cy="182.9" rx="37.7" ry="37.7"/>
<ellipse transform="matrix(0.7071 -0.7071 0.7071 0.7071 5.0047 754.4267)" class="st20" cx="913.2" cy="371.2" rx="50" ry="50"/>
<circle class="st21" cx="620.2" cy="406.5" r="23.7"/>
</svg>
